<svg xmlns="http://www.w3.org/2000/svg" width="18.573" height="18.607" fill="none"><path stroke="#B00000" stroke-linejoin="round" stroke-width="2" d="M17.57 15.93c0 .23-.05.46-.14.67-.09.22-.23.41-.4.56-.17.16-.38.28-.59.35-.22.08-.46.11-.69.09a16.55 16.55 0 0 1-7.19-2.56 16.338 16.338 0 0 1-5-5A16.457 16.457 0 0 1 1 2.81c-.02-.23.01-.46.08-.68a1.68 1.68 0 0 1 .91-.99c.21-.1.44-.14.67-.14h2.5c.4-.01.8.13 1.1.4.31.26.51.63.57 1.03.1.8.3 1.58.58 2.34.11.3.14.62.07.93-.07.32-.22.6-.45.83L5.98 7.59c1.18 2.08 2.91 3.81 5 5l1.05-1.06c.23-.23.52-.38.83-.45.31-.06.63-.04.93.07.76.29 1.54.48 2.34.59.41.05.78.26 1.04.57.27.31.41.71.4 1.12v2.5Z"/></svg>