<svg xmlns="http://www.w3.org/2000/svg" width="58.906" height="48.825" fill="none"><path fill="none" d="M6.12 20.35H3.35c-.48 0-.94.2-1.27.56-.34.36-.53.86-.53 1.37v7.76c0 .51.19 1 .53 1.36.33.37.79.57 1.27.57h2.77V20.35Z"/><path stroke="#B00000" stroke-linecap="round" stroke-width="3.114" d="M6.12 20.35H3.35c-.48 0-.94.2-1.27.56-.34.36-.53.86-.53 1.37v7.76c0 .51.19 1 .53 1.36.33.37.79.57 1.27.57h2.77"/><path fill="none" d="M53.59 20.35h1.96c.48 0 .93.2 1.27.56.34.36.52.86.52 1.37v7.76c0 .51-.18 1-.52 1.36-.34.37-.79.57-1.27.57h-2.78l.82-11.62Z"/><path stroke="#B00000" stroke-linecap="round" stroke-width="3.114" d="M53.59 20.35h1.96c.48 0 .93.2 1.27.56.34.36.52.86.52 1.37v7.76c0 .51-.18 1-.52 1.36-.34.37-.79.57-1.27.57h-2.78"/><path fill="none" d="M39.85 45.02h3.64c4.12-3.01 7.17-7.25 8.73-12.13a24.16 24.16 0 0 0-.1-14.97 24.02 24.02 0 0 0-8.87-12.01c-4.15-2.95-9.13-4.5-14.22-4.41-5.08.09-10.01 1.8-14.06 4.9-4.05 3.1-7.01 7.41-8.45 12.32-1.45 4.9-1.3 10.15.42 14.96 1.72 4.82 4.92 8.95 9.14 11.82l23.77-.48Z"/><path stroke="#B00000" stroke-linecap="round" stroke-width="3" d="M39.85 45.02h3.64c4.12-3.01 7.17-7.25 8.73-12.13a24.16 24.16 0 0 0-.1-14.97 24.02 24.02 0 0 0-8.87-12.01c-4.15-2.95-9.13-4.5-14.22-4.41-5.08.09-10.01 1.8-14.06 4.9-4.05 3.1-7.01 7.41-8.45 12.32-1.45 4.9-1.3 10.15.42 14.96 1.72 4.82 4.92 8.95 9.14 11.82"/><path stroke="#B00000" stroke-width="3" d="M27.37 47.32c-.51 0-.99-.21-1.35-.57a2.06 2.06 0 0 1-.56-1.38v-.25c.01-.52.21-1.01.56-1.38.36-.36.84-.57 1.35-.57H37c.51 0 .99.21 1.35.57.35.37.56.86.56 1.38v.25c0 .52-.2 1.01-.56 1.38-.36.36-.84.57-1.35.57h-9.63Z"/><path fill="#B00000" d="M14.69 30.36h6.22v-1.51h-3.66v-.06l1.27-1.25c1.8-1.64 2.28-2.45 2.28-3.45 0-1.51-1.24-2.58-3.11-2.58-1.83 0-3.09 1.1-3.09 2.81h1.76c-.01-.84.52-1.35 1.32-1.35.76 0 1.34.48 1.34 1.25 0 .69-.43 1.17-1.22 1.93l-3.11 2.88v1.33Zm7.24-1.54h4.19v1.54h1.76v-1.54h1.08v-1.48h-1.08v-5.71h-2.31l-3.64 5.74v1.45Zm4.22-1.48h-2.36v-.06l2.29-3.64h.07v3.7Zm9.4 1.81 1.12-1.12-1.98-1.98 1.98-1.99-1.12-1.13-1.99 1.99-1.99-1.99-1.11 1.13 1.98 1.99-1.98 1.98 1.11 1.12 1.99-1.99 1.99 1.99Zm3.15 1.21h1.9l3.62-7.2v-1.53H38.1v1.51h4.21v.06l-3.61 7.16Z"/></svg>