<svg xmlns="http://www.w3.org/2000/svg" width="56.466" height="37.729" fill="none"><path fill="none" d="M53.59 31.03v1.47c0 .99-.39 1.94-1.09 2.63-.7.7-1.65 1.09-2.63 1.09H5.22c-.99 0-1.94-.39-2.64-1.09A3.723 3.723 0 0 1 1.5 32.5V5.22c0-.99.39-1.94 1.08-2.64.7-.69 1.65-1.08 2.64-1.08h44.65c.98 0 1.93.39 2.63 1.08.7.7 1.09 1.65 1.09 2.64v25.81Z"/><path stroke="#B00000" stroke-linecap="round" stroke-linejoin="round" stroke-width="3" d="M53.59 31.03v1.47c0 .99-.39 1.94-1.09 2.63-.7.7-1.65 1.09-2.63 1.09H5.22c-.99 0-1.94-.39-2.64-1.09A3.723 3.723 0 0 1 1.5 32.5V5.22c0-.99.39-1.94 1.08-2.64.7-.69 1.65-1.08 2.64-1.08h44.65c.98 0 1.93.39 2.63 1.08.7.7 1.09 1.65 1.09 2.64v6.02M47.54 11.73v4.15M47.54 25.57v4.16M54.96 16.39l-3.45 1.94M43.57 23.12l-3.45 1.95M40.12 16.39l3.45 1.95M51.51 23.12l3.45 1.95"/><path stroke="#B00000" stroke-linecap="round" stroke-linejoin="round" stroke-width="3" d="m8.89 26.23 7.81-7.81 5.73 5.73 11.98-11.97"/></svg>