<svg xmlns="http://www.w3.org/2000/svg" width="61.04" height="61.055" fill="none" viewBox="0 0 61.041 61.055"><path stroke="#B00000" stroke-linecap="round" stroke-linejoin="round" stroke-width="3" d="M16.91 4.94A28.995 28.995 0 0 1 37.4 2.38a29.024 29.024 0 0 1 17 11.72 29.101 29.101 0 0 1 4.89 20.07 28.994 28.994 0 0 1-9.7 18.22 29.031 29.031 0 0 1-19.37 7.16A28.968 28.968 0 0 1 11 52a28.95 28.95 0 0 1-9.33-18.42 28.993 28.993 0 0 1 5.3-19.96"/><path stroke="#B00000" stroke-linecap="round" stroke-linejoin="round" stroke-width="2" d="m15.49 5.22 1.94-4.21M15.49 4.92l4.11 1.66"/><path stroke="#B00000" stroke-width="3" d="M30.51 53.18c-12.49 0-22.62-10.13-22.62-22.63 0-12.5 10.13-22.63 22.62-22.63 12.5 0 22.63 10.13 22.63 22.63 0 12.5-10.13 22.63-22.63 22.63Z"/><path fill="#B00000" fill-rule="evenodd" d="M30.51 11.5c.7 0 1.27.57 1.27 1.27v1.7c0 .7-.57 1.26-1.27 1.26-.7 0-1.27-.56-1.27-1.26v-1.7c0-.7.57-1.27 1.27-1.27ZM30.51 45.36c.7 0 1.27.57 1.27 1.27v1.7c0 .7-.57 1.27-1.27 1.27-.7 0-1.27-.57-1.27-1.27v-1.7c0-.7.57-1.27 1.27-1.27ZM49.56 30.55c0 .7-.57 1.27-1.27 1.27H46.6c-.7 0-1.27-.57-1.27-1.27 0-.7.57-1.27 1.27-1.27h1.69c.7 0 1.27.57 1.27 1.27ZM15.7 30.55c0 .7-.57 1.27-1.27 1.27h-1.7c-.7 0-1.27-.57-1.27-1.27 0-.7.57-1.27 1.27-1.27h1.7c.7 0 1.27.57 1.27 1.27Z"/><path stroke="#B00000" stroke-linecap="round" stroke-linejoin="round" stroke-width="3" d="m23.91 30.68 4.68 4.55 9.72-9.44"/></svg>