<svg xmlns="http://www.w3.org/2000/svg" width="15.93" height="14" fill="none"><path fill="#2EC5CE" fill-rule="evenodd" d="M15.92 2.18c-2.38 1.22-3.57 2.64-3.57 4.28 1.01.13 1.85.56 2.52 1.29.66.74 1 1.6 1 2.57 0 1.03-.33 1.9-.97 2.61-.65.71-1.46 1.07-2.44 1.07-1.09 0-2.04-.47-2.84-1.39-.8-.92-1.2-2.04-1.2-3.35 0-3.95 2.13-7.04 6.39-9.26l1.11 2.18Zm-8.42 0C5.1 3.4 3.9 4.82 3.9 6.46c1.03.13 1.88.56 2.55 1.29.66.74 1 1.6 1 2.57 0 1.03-.33 1.9-.99 2.61-.65.71-1.47 1.07-2.45 1.07-1.09 0-2.03-.47-2.83-1.39C.39 11.69 0 10.57 0 9.26 0 5.31 2.12 2.22 6.36 0L7.5 2.18Z"/></svg>