<svg xmlns="http://www.w3.org/2000/svg" width="21.875" height="21.875" fill="none"><path fill="#FFF" d="M18.59 3.17A10.739 10.739 0 0 0 10.93 0C4.95 0 .09 4.86.09 10.83c0 1.91.5 3.78 1.44 5.42L0 21.87l5.74-1.51c1.58.87 3.37 1.32 5.18 1.32h.01c5.97 0 10.94-4.86 10.94-10.84 0-2.9-1.23-5.62-3.28-7.67Zm-7.66 16.68a8.99 8.99 0 0 1-4.59-1.25l-.33-.2-3.41.9.91-3.33-.21-.34a8.938 8.938 0 0 1-1.38-4.8c0-4.96 4.04-9 9.01-9 2.41 0 4.67.93 6.37 2.64 1.7 1.7 2.74 3.96 2.74 6.37 0 4.97-4.15 9.01-9.11 9.01Zm4.94-6.74c-.27-.14-1.6-.8-1.85-.88-.25-.1-.43-.14-.61.13-.18.28-.7.88-.86 1.07-.16.18-.32.2-.59.07-1.59-.8-2.63-1.42-3.68-3.23-.28-.48.27-.44.79-1.48.09-.18.05-.33-.02-.47-.07-.14-.61-1.47-.84-2.01-.22-.53-.44-.46-.61-.47-.15-.01-.33-.01-.52-.01a1 1 0 0 0-.72.34c-.25.28-.95.93-.95 2.26 0 1.34.98 2.62 1.11 2.81.14.18 1.91 2.91 4.63 4.09 1.72.74 2.39.8 3.25.68.52-.08 1.6-.66 1.83-1.29.22-.64.22-1.18.15-1.29-.06-.12-.24-.19-.51-.32Z"/></svg>