<svg xmlns="http://www.w3.org/2000/svg" width="125" height="53.535" fill="none"><defs><clipPath id="a"><rect width="124" height="52.535" fill="#fff" fill-opacity="0" rx="0" transform="translate(.5 .5)"/></clipPath></defs><rect width="124" height="52.535" fill="none" rx="0" transform="translate(.5 .5)"/><g clip-path="url(#a)"><path fill="#002D73" d="M34.29 13.43v22.59c0 .21.1.39.22.41.7.09 1.47.09 2.28 0 .66-.09 1.47-.25 2.47-.5-.04.34-.06.72-.06 1.12 0 .34.02.76.06 1.21h-7.84V13.44c.14.02.34.06.58.12.34.1.7.1.91 0h.71c.27-.06.49-.11.67-.13Zm9.41 1.24c-.42.1-.7.1-.9 0h-.71c-.24-.05-.44-.09-.58-.11v23.7h2.73V14.55c-.15.02-.33.06-.54.12Zm2.7-.14c.03.34.04.68.04 1 0 .44-.01.82-.03 1.14h.45c1.3-.28 2.38-.42 3.21-.42.14 0 .24.19.24.41v21.6h2.65v-21.6c0-.22.11-.41.24-.41.61 0 1.48.1 2.58.28.28.07.58.12.89.14-.04-.33-.04-.71 0-1.13-.04-.33-.04-.67 0-1.01H46.4Zm12.45 0v23.73h7.48c-.04-.43-.06-.82-.06-1.14 0-.37.02-.72.05-1.03-.51.13-1.08.24-1.69.31-.7.09-1.68.14-2.89.14-.14 0-.24-.18-.24-.41v-9.17c0-.23.1-.41.24-.41h2c.66.07 1.2.13 1.74.2l.39.05-.03-.3-.01-1.65c0-.05 0-.1.01-.14.01-.03.01-.06.02-.09-.71.15-1.35.21-2.12.21h-2c-.14 0-.24-.18-.24-.41v-7.76c0-.22.1-.41.24-.41 1.47 0 3.02.17 4.61.49-.05-.37-.08-.73-.08-1.07 0-.39.03-.78.08-1.14h-7.5Zm18.74 16.44c-.05-2.93-1.37-5.53-3.91-7.71-1.89-1.67-2.8-3.29-2.8-4.94 0-2.68.91-4.14 2.64-4.25 1.18 0 2.08 1.08 2.69 3.22l.27-1.46c.15-.64.27-1.18.37-1.62-.91-.93-2-1.44-3.25-1.53-3.13.28-4.72 2.76-4.83 7.57 0 3.24 1.2 5.84 3.57 7.73 1.97 1.53 2.97 3.3 2.97 5.23-.12 2.72-1.07 4.14-2.81 4.25-1.72-.1-2.8-1.49-3.21-4.13h-.03c-.11 1.43-.28 2.85-.52 4.21 1.05.68 2.14 1.07 3.24 1.16 3.47 0 5.39-2.82 5.61-7.73Zm4.58-3.42a.23.23 0 0 0-.15.11.53.53 0 0 0-.07.28v10.32H79.2V14.53h4.95c2.84 0 4.24 1.86 4.3 5.67.02 2.08-.32 3.73-.99 4.91-.94 1.63-2.57 2.45-4.85 2.45-.14 0-.28 0-.44-.01Zm-.03-1.19c.11.02.22.04.34.04.34 0 .73-.11 1.16-.33 1.25-.61 1.94-2.35 2.05-5.2-.11-3.2-.85-4.98-2.2-5.29h-1.31c-.13 0-.23.17-.23.39v10c0 .2.08.36.19.39Zm17.3-11.83v23.73h7.5c-.04-.43-.05-.83-.05-1.16 0-.38.01-.73.04-1.05-.51.14-1.08.24-1.69.32-.72.09-1.66.14-2.9.14-.12 0-.23-.18-.23-.39v-9.16c0-.22.11-.4.23-.4h2.22c.84.09 1.6.17 2.29.25-.01-.09-.02-.2-.04-.32l-.01-1.64c0-.05 0-.09.01-.13l.03-.12c-.7.14-1.46.21-2.28.21h-2.22c-.12 0-.23-.17-.23-.39v-7.75c0-.21.11-.39.23-.39 1.48 0 3.04.17 4.62.5-.05-.39-.07-.75-.07-1.09 0-.41.02-.8.07-1.16h-7.52Zm13.99 23.73h-4.56V14.53h5.87c3.95.46 5.98 4.11 6.2 11.14-.27 7.9-2.8 12.13-7.51 12.59Zm4.43-12.57c0-6.52-1.71-9.83-5.08-9.83h-1.02c-.12 0-.23.17-.23.39v20.29c0 .21.11.39.23.39h.9c1.72 0 3.04-.96 3.91-2.86.85-1.87 1.29-4.69 1.29-8.38ZM89.98 14.53v23.73h7.49c-.03-.43-.05-.83-.05-1.16 0-.38.01-.73.05-1.05-.52.14-1.09.24-1.7.32-.71.09-1.66.14-2.89.14-.13 0-.23-.18-.23-.39v-9.16c0-.22.1-.4.23-.4h2.22c.83.09 1.59.17 2.29.25-.02-.09-.03-.2-.05-.32v-1.64c0-.05 0-.09.01-.13.01-.04.01-.08.02-.12-.69.14-1.46.21-2.27.21h-2.22c-.13 0-.23-.17-.23-.39v-7.75c0-.21.1-.39.23-.39 1.48 0 3.03.17 4.62.5-.06-.39-.08-.75-.08-1.09 0-.41.03-.8.08-1.16h-7.52Z"/><path fill="#3E8EDE" d="m26.2 26.03-6.83-11.7-2.91 6.32 3.14 5.38c.29.49.29 1.3 0 1.8l-.91 1.55s.61 1.57.64 1.67c.14.48.17 1.62-.23 2.14l-7.13 9.38v9.63L26.2 27.83c.29-.5.29-1.31 0-1.8Z"/><path fill="#002D73" d="M10.34 27.5c-.29-.49-.29-1.3 0-1.8l.9-1.56-.62-1.53c-.29-.71-.2-1.74.21-2.27l7.13-9.38.01-9.62-.01-.01v-.01L3.73 25.7c-.29.5-.29 1.31 0 1.8l6.83 11.7 2.91-6.32-3.13-5.38Z"/><path fill="#3E8EDE" d="M21.56 7.02c.13 0 .26.14.33.35.1.39-.05.73-.14.92L15.5 21.88c-.06.14-.07.43-.01.57.03.09 3.37 8.39 3.49 8.68.16.4.15 1.44-.18 1.87L8.75 46.22c-.14.18-.25.29-.4.29-.12-.02-.25-.16-.3-.35-.11-.38.05-.75.13-.92l6.25-13.59c.07-.15.07-.43.01-.58l-3.48-8.59c-.26-.62-.18-1.49.17-1.95L21.19 7.31c.15-.2.25-.29.37-.29Zm0-.04c-.12 0-.23.08-.39.29L11.11 20.49c-.36.48-.44 1.38-.18 2.01l3.49 8.6c.05.13.05.39-.01.52L8.16 45.21c-.08.18-.25.56-.14.97.06.21.2.36.33.37.16 0 .27-.11.41-.29l10.06-13.23c.34-.45.34-1.52.18-1.93-.12-.29-3.49-8.67-3.49-8.67-.05-.13-.05-.4.01-.52l6.25-13.6c.08-.18.26-.55.14-.96-.07-.22-.21-.37-.35-.37Z"/><path fill="#FFCE00" d="M18.64 31.26c.08.21.15 1-.05 1.27L8.54 45.75c-.09.11-.14.16-.17.16s-.01-.1.08-.31l6.25-13.58c.16-.35.17-.93.03-1.28l-3.49-8.6s7.32 8.91 7.4 9.12Z"/><path fill="#FFDE6E" d="m18.64 31.26-3.44-8.47c-.14-.36-.13-.93.03-1.27l6.25-13.6c.09-.2.11-.3.08-.3s-.08.05-.16.16L11.34 21c-.2.27-.25.78-.1 1.14l7.4 9.12Z"/></g></svg>