<svg xmlns="http://www.w3.org/2000/svg" width="142.373" height="120" fill="none"><path fill="#B00000" fill-rule="evenodd" d="M142.37 18.74c-21.33 10.41-31.99 22.64-31.99 36.7 9.09 1.04 16.61 4.73 22.55 11.06 5.94 6.34 8.91 13.67 8.91 22 0 8.85-2.88 16.31-8.65 22.38-5.77 6.08-13.02 9.12-21.76 9.12-9.79 0-18.26-3.95-25.43-11.85-7.17-7.89-10.75-17.48-10.75-28.76 0-33.84 19.05-60.31 57.16-79.39l9.96 18.74Zm-75.26 0c-21.5 10.41-32.24 22.64-32.24 36.7 9.26 1.04 16.86 4.73 22.81 11.06 5.94 6.34 8.91 13.67 8.91 22 0 8.85-2.93 16.31-8.78 22.38-5.86 6.08-13.16 9.12-21.9 9.12-9.78 0-18.22-3.95-25.3-11.85C3.53 100.26 0 90.67 0 79.39 0 45.55 18.96 19.08 56.89 0l10.22 18.74Z"/></svg>